<mxfile host="65bd71144e">
    <diagram id="StT7xC1vbbR5JQmQoB8D" name="PÃ¡gina-1">
        <mxGraphModel dx="662" dy="401" grid="1" gridSize="10" guides="1" tooltips="1" connect="1" arrows="0" fold="1" page="1" pageScale="1" pageWidth="827" pageHeight="1169" background="#FF66B3" math="0" shadow="0">
            <root>
                <mxCell id="0"/>
                <mxCell id="1" parent="0"/>
                <mxCell id="67" value="FIN" style="ellipse;whiteSpace=wrap;html=1;fontFamily=Times New Roman;fontSize=12;fillColor=#FF0080;" vertex="1" parent="1">
                    <mxGeometry x="990.71" y="1070" width="120" height="80" as="geometry"/>
                </mxCell>
                <mxCell id="2" value="&lt;font face=&quot;Times New Roman&quot;&gt;INICIO&lt;/font&gt;" style="ellipse;whiteSpace=wrap;html=1;fillColor=#66FF66;" vertex="1" parent="1">
                    <mxGeometry x="990.71" y="80" width="120" height="80" as="geometry"/>
                </mxCell>
                <mxCell id="3" value="X,Y" style="shape=parallelogram;perimeter=parallelogramPerimeter;whiteSpace=wrap;html=1;fixedSize=1;fontFamily=Times New Roman;fillColor=#FF8000;" vertex="1" parent="1">
                    <mxGeometry x="990.71" y="230" width="120" height="60" as="geometry"/>
                </mxCell>
                <mxCell id="4" value="True" style="text;html=1;align=center;verticalAlign=middle;resizable=0;points=[];autosize=1;strokeColor=none;fillColor=none;fontFamily=Times New Roman;" vertex="1" parent="1">
                    <mxGeometry x="1090.71" y="360" width="50" height="30" as="geometry"/>
                </mxCell>
                <mxCell id="7" value="X==0" style="rhombus;whiteSpace=wrap;html=1;fontFamily=Times New Roman;fillColor=#666600;" vertex="1" parent="1">
                    <mxGeometry x="1010.71" y="360" width="80" height="80" as="geometry"/>
                </mxCell>
                <mxCell id="10" value="False" style="text;html=1;align=center;verticalAlign=middle;resizable=0;points=[];autosize=1;strokeColor=none;fillColor=none;fontFamily=Times New Roman;" vertex="1" parent="1">
                    <mxGeometry x="960.71" y="360" width="50" height="30" as="geometry"/>
                </mxCell>
                <mxCell id="12" value="Y==0" style="rhombus;whiteSpace=wrap;html=1;fontFamily=Times New Roman;fillColor=#666600;" vertex="1" parent="1">
                    <mxGeometry x="550.71" y="440" width="80" height="80" as="geometry"/>
                </mxCell>
                <mxCell id="13" value="Y==0" style="rhombus;whiteSpace=wrap;html=1;fontFamily=Times New Roman;fillColor=#666600;" vertex="1" parent="1">
                    <mxGeometry x="1210.71" y="440" width="80" height="80" as="geometry"/>
                </mxCell>
                <mxCell id="17" value="EJE Y" style="shape=document;whiteSpace=wrap;html=1;boundedLbl=1;fontFamily=Times New Roman;fillColor=#3333FF;" vertex="1" parent="1">
                    <mxGeometry x="1060.71" y="510" width="105" height="60" as="geometry"/>
                </mxCell>
                <mxCell id="18" value="ORIGEN" style="shape=document;whiteSpace=wrap;html=1;boundedLbl=1;fontFamily=Times New Roman;fillColor=#3333FF;" vertex="1" parent="1">
                    <mxGeometry x="1380.71" y="510" width="105" height="60" as="geometry"/>
                </mxCell>
                <mxCell id="21" value="" style="endArrow=none;html=1;fontFamily=Times New Roman;exitX=0.571;exitY=0.8;exitDx=0;exitDy=0;exitPerimeter=0;" edge="1" parent="1" source="17">
                    <mxGeometry width="50" height="50" relative="1" as="geometry">
                        <mxPoint x="1113.21" y="620" as="sourcePoint"/>
                        <mxPoint x="1280.71" y="670" as="targetPoint"/>
                        <Array as="points">
                            <mxPoint x="1120.71" y="670"/>
                        </Array>
                    </mxGeometry>
                </mxCell>
                <mxCell id="22" value="" style="endArrow=none;html=1;fontFamily=Times New Roman;" edge="1" parent="1">
                    <mxGeometry width="50" height="50" relative="1" as="geometry">
                        <mxPoint x="1440.71" y="560" as="sourcePoint"/>
                        <mxPoint x="1280.71" y="670" as="targetPoint"/>
                        <Array as="points">
                            <mxPoint x="1440.71" y="670"/>
                        </Array>
                    </mxGeometry>
                </mxCell>
                <mxCell id="24" value="True" style="text;html=1;align=center;verticalAlign=middle;resizable=0;points=[];autosize=1;strokeColor=none;fillColor=none;fontFamily=Times New Roman;" vertex="1" parent="1">
                    <mxGeometry x="1320.71" y="450" width="50" height="30" as="geometry"/>
                </mxCell>
                <mxCell id="25" value="False" style="text;html=1;align=center;verticalAlign=middle;resizable=0;points=[];autosize=1;strokeColor=none;fillColor=none;fontFamily=Times New Roman;" vertex="1" parent="1">
                    <mxGeometry x="1130.71" y="450" width="50" height="30" as="geometry"/>
                </mxCell>
                <mxCell id="26" value="" style="endArrow=none;html=1;fontFamily=Times New Roman;entryX=0.5;entryY=0;entryDx=0;entryDy=0;exitX=1;exitY=0.5;exitDx=0;exitDy=0;" edge="1" parent="1" source="12" target="29">
                    <mxGeometry width="50" height="50" relative="1" as="geometry">
                        <mxPoint x="860.71" y="480" as="sourcePoint"/>
                        <mxPoint x="930.71" y="480" as="targetPoint"/>
                        <Array as="points">
                            <mxPoint x="940.71" y="480"/>
                        </Array>
                    </mxGeometry>
                </mxCell>
                <mxCell id="27" value="&lt;font style=&quot;font-size: 12px;&quot;&gt;True&lt;/font&gt;" style="edgeLabel;html=1;align=center;verticalAlign=middle;resizable=0;points=[];fontFamily=Times New Roman;labelBackgroundColor=none;" vertex="1" connectable="0" parent="26">
                    <mxGeometry x="-0.2736" y="4" relative="1" as="geometry">
                        <mxPoint y="-11" as="offset"/>
                    </mxGeometry>
                </mxCell>
                <mxCell id="28" value="" style="endArrow=none;html=1;fontFamily=Times New Roman;entryX=0.5;entryY=0;entryDx=0;entryDy=0;" edge="1" parent="1" source="12" target="30">
                    <mxGeometry width="50" height="50" relative="1" as="geometry">
                        <mxPoint x="479.9993218813452" y="530" as="sourcePoint"/>
                        <mxPoint x="479.9993218813452" y="480" as="targetPoint"/>
                        <Array as="points">
                            <mxPoint x="450.71" y="480"/>
                        </Array>
                    </mxGeometry>
                </mxCell>
                <mxCell id="29" value="EJE X" style="shape=document;whiteSpace=wrap;html=1;boundedLbl=1;fontFamily=Times New Roman;fillColor=#3333FF;" vertex="1" parent="1">
                    <mxGeometry x="885.71" y="525" width="105" height="60" as="geometry"/>
                </mxCell>
                <mxCell id="30" value="X&amp;gt;0" style="rhombus;whiteSpace=wrap;html=1;fontFamily=Times New Roman;fontSize=12;fillColor=#666600;" vertex="1" parent="1">
                    <mxGeometry x="410.71" y="510" width="80" height="80" as="geometry"/>
                </mxCell>
                <mxCell id="31" value="False" style="text;html=1;align=center;verticalAlign=middle;resizable=0;points=[];autosize=1;strokeColor=none;fillColor=none;fontFamily=Times New Roman;" vertex="1" parent="1">
                    <mxGeometry x="480.71" y="450" width="50" height="30" as="geometry"/>
                </mxCell>
                <mxCell id="32" value="" style="endArrow=none;html=1;fontFamily=Times New Roman;fontSize=12;entryX=0.5;entryY=0;entryDx=0;entryDy=0;" edge="1" parent="1" source="30" target="36">
                    <mxGeometry width="50" height="50" relative="1" as="geometry">
                        <mxPoint x="490.71" y="600" as="sourcePoint"/>
                        <mxPoint x="561.4206781186547" y="550" as="targetPoint"/>
                        <Array as="points">
                            <mxPoint x="620" y="550"/>
                        </Array>
                    </mxGeometry>
                </mxCell>
                <mxCell id="34" value="" style="endArrow=none;html=1;fontFamily=Times New Roman;fontSize=12;entryX=0.5;entryY=0;entryDx=0;entryDy=0;" edge="1" parent="1" source="30" target="35">
                    <mxGeometry width="50" height="50" relative="1" as="geometry">
                        <mxPoint x="339.9993218813452" y="600" as="sourcePoint"/>
                        <mxPoint x="339.9993218813452" y="550" as="targetPoint"/>
                        <Array as="points">
                            <mxPoint x="120" y="550"/>
                        </Array>
                    </mxGeometry>
                </mxCell>
                <mxCell id="35" value="Y&amp;lt;0" style="rhombus;whiteSpace=wrap;html=1;fontFamily=Times New Roman;fontSize=12;fillColor=#666600;" vertex="1" parent="1">
                    <mxGeometry x="80" y="590" width="80" height="80" as="geometry"/>
                </mxCell>
                <mxCell id="36" value="Y&amp;gt;0" style="rhombus;whiteSpace=wrap;html=1;fontFamily=Times New Roman;fontSize=12;fillColor=#666600;" vertex="1" parent="1">
                    <mxGeometry x="580" y="590" width="80" height="80" as="geometry"/>
                </mxCell>
                <mxCell id="37" value="CUADRANTE 2" style="shape=document;whiteSpace=wrap;html=1;boundedLbl=1;fontFamily=Times New Roman;fontSize=12;fillColor=#3333FF;" vertex="1" parent="1">
                    <mxGeometry x="10" y="730" width="120" height="80" as="geometry"/>
                </mxCell>
                <mxCell id="38" value="CUADRANTE 4" style="shape=document;whiteSpace=wrap;html=1;boundedLbl=1;fontFamily=Times New Roman;fontSize=12;fillColor=#3333FF;" vertex="1" parent="1">
                    <mxGeometry x="470" y="720" width="120" height="80" as="geometry"/>
                </mxCell>
                <mxCell id="39" value="CUADRANTE 1" style="shape=document;whiteSpace=wrap;html=1;boundedLbl=1;fontFamily=Times New Roman;fontSize=12;fillColor=#3333FF;" vertex="1" parent="1">
                    <mxGeometry x="740.71" y="720" width="120" height="80" as="geometry"/>
                </mxCell>
                <mxCell id="40" value="CUADRANTE 3" style="shape=document;whiteSpace=wrap;html=1;boundedLbl=1;fontFamily=Times New Roman;fontSize=12;fillColor=#3333FF;" vertex="1" parent="1">
                    <mxGeometry x="280" y="730" width="120" height="80" as="geometry"/>
                </mxCell>
                <mxCell id="43" value="" style="endArrow=none;html=1;fontFamily=Times New Roman;fontSize=12;entryX=0.408;entryY=-0.05;entryDx=0;entryDy=0;entryPerimeter=0;" edge="1" parent="1" source="36" target="38">
                    <mxGeometry width="50" height="50" relative="1" as="geometry">
                        <mxPoint x="509.28932188134524" y="680" as="sourcePoint"/>
                        <mxPoint x="509.28932188134524" y="630" as="targetPoint"/>
                        <Array as="points">
                            <mxPoint x="520" y="630"/>
                        </Array>
                    </mxGeometry>
                </mxCell>
                <mxCell id="44" value="" style="endArrow=none;html=1;fontFamily=Times New Roman;fontSize=12;entryX=0.5;entryY=0;entryDx=0;entryDy=0;" edge="1" parent="1" source="7" target="12">
                    <mxGeometry width="50" height="50" relative="1" as="geometry">
                        <mxPoint x="709.9993218813453" y="450" as="sourcePoint"/>
                        <mxPoint x="709.9993218813453" y="400" as="targetPoint"/>
                        <Array as="points">
                            <mxPoint x="591" y="400"/>
                        </Array>
                    </mxGeometry>
                </mxCell>
                <mxCell id="45" value="" style="endArrow=none;html=1;fontFamily=Times New Roman;fontSize=12;" edge="1" parent="1" source="3">
                    <mxGeometry width="50" height="50" relative="1" as="geometry">
                        <mxPoint x="1050.71" y="340" as="sourcePoint"/>
                        <mxPoint x="1050.71" y="360.71067811865476" as="targetPoint"/>
                    </mxGeometry>
                </mxCell>
                <mxCell id="46" value="" style="endArrow=none;html=1;fontFamily=Times New Roman;fontSize=12;entryX=0.5;entryY=0;entryDx=0;entryDy=0;" edge="1" parent="1" source="7" target="13">
                    <mxGeometry width="50" height="50" relative="1" as="geometry">
                        <mxPoint x="1090.71" y="450" as="sourcePoint"/>
                        <mxPoint x="1161.4206781186547" y="400" as="targetPoint"/>
                        <Array as="points">
                            <mxPoint x="1250" y="400"/>
                        </Array>
                    </mxGeometry>
                </mxCell>
                <mxCell id="47" value="" style="endArrow=none;html=1;fontFamily=Times New Roman;fontSize=12;entryX=0.5;entryY=0;entryDx=0;entryDy=0;" edge="1" parent="1" source="13" target="17">
                    <mxGeometry width="50" height="50" relative="1" as="geometry">
                        <mxPoint x="1139.9993218813452" y="530" as="sourcePoint"/>
                        <mxPoint x="1139.9993218813452" y="480" as="targetPoint"/>
                        <Array as="points">
                            <mxPoint x="1113" y="480"/>
                        </Array>
                    </mxGeometry>
                </mxCell>
                <mxCell id="48" value="" style="endArrow=none;html=1;fontFamily=Times New Roman;fontSize=12;entryX=0.5;entryY=0;entryDx=0;entryDy=0;" edge="1" parent="1" source="13" target="18">
                    <mxGeometry width="50" height="50" relative="1" as="geometry">
                        <mxPoint x="1290.71" y="530" as="sourcePoint"/>
                        <mxPoint x="1361.420678118655" y="480" as="targetPoint"/>
                        <Array as="points">
                            <mxPoint x="1430" y="480"/>
                        </Array>
                    </mxGeometry>
                </mxCell>
                <mxCell id="49" value="" style="endArrow=none;html=1;fontFamily=Times New Roman;fontSize=12;" edge="1" parent="1" source="2">
                    <mxGeometry width="50" height="50" relative="1" as="geometry">
                        <mxPoint x="1050.71" y="210" as="sourcePoint"/>
                        <mxPoint x="1050.71" y="230.71067811865476" as="targetPoint"/>
                    </mxGeometry>
                </mxCell>
                <mxCell id="50" value="" style="endArrow=none;html=1;fontFamily=Times New Roman;fontSize=12;entryX=0.5;entryY=0;entryDx=0;entryDy=0;exitX=1;exitY=0.5;exitDx=0;exitDy=0;" edge="1" parent="1" source="35" target="40">
                    <mxGeometry width="50" height="50" relative="1" as="geometry">
                        <mxPoint x="160" y="680" as="sourcePoint"/>
                        <mxPoint x="230.71067811865476" y="630" as="targetPoint"/>
                        <Array as="points">
                            <mxPoint x="340" y="630"/>
                        </Array>
                    </mxGeometry>
                </mxCell>
                <mxCell id="51" value="" style="endArrow=none;html=1;fontFamily=Times New Roman;fontSize=12;entryX=0.25;entryY=0;entryDx=0;entryDy=0;exitX=0;exitY=0.5;exitDx=0;exitDy=0;" edge="1" parent="1" source="35" target="37">
                    <mxGeometry width="50" height="50" relative="1" as="geometry">
                        <mxPoint x="100" y="650" as="sourcePoint"/>
                        <mxPoint x="9.289321881345245" y="630" as="targetPoint"/>
                        <Array as="points">
                            <mxPoint x="40" y="630"/>
                        </Array>
                    </mxGeometry>
                </mxCell>
                <mxCell id="52" value="" style="endArrow=none;html=1;fontFamily=Times New Roman;fontSize=12;entryX=0.5;entryY=0;entryDx=0;entryDy=0;exitX=1;exitY=0.5;exitDx=0;exitDy=0;" edge="1" parent="1" source="36" target="39">
                    <mxGeometry width="50" height="50" relative="1" as="geometry">
                        <mxPoint x="660" y="680" as="sourcePoint"/>
                        <mxPoint x="730.7106781186548" y="630" as="targetPoint"/>
                        <Array as="points">
                            <mxPoint x="801" y="630"/>
                        </Array>
                    </mxGeometry>
                </mxCell>
                <mxCell id="55" value="" style="endArrow=none;html=1;fontFamily=Times New Roman;fontSize=12;exitX=0.25;exitY=1.013;exitDx=0;exitDy=0;exitPerimeter=0;" edge="1" parent="1" source="37">
                    <mxGeometry width="50" height="50" relative="1" as="geometry">
                        <mxPoint x="70" y="860" as="sourcePoint"/>
                        <mxPoint x="200" y="920" as="targetPoint"/>
                        <Array as="points">
                            <mxPoint x="40" y="920"/>
                        </Array>
                    </mxGeometry>
                </mxCell>
                <mxCell id="56" value="" style="endArrow=none;html=1;fontFamily=Times New Roman;fontSize=12;exitX=0.533;exitY=0.825;exitDx=0;exitDy=0;exitPerimeter=0;" edge="1" parent="1" source="40">
                    <mxGeometry width="50" height="50" relative="1" as="geometry">
                        <mxPoint x="340" y="860" as="sourcePoint"/>
                        <mxPoint x="200" y="920" as="targetPoint"/>
                        <Array as="points">
                            <mxPoint x="344" y="920"/>
                        </Array>
                    </mxGeometry>
                </mxCell>
                <mxCell id="57" value="" style="endArrow=none;html=1;fontFamily=Times New Roman;fontSize=12;" edge="1" parent="1">
                    <mxGeometry width="50" height="50" relative="1" as="geometry">
                        <mxPoint x="200" y="1000" as="sourcePoint"/>
                        <mxPoint x="200" y="920" as="targetPoint"/>
                    </mxGeometry>
                </mxCell>
                <mxCell id="59" value="" style="endArrow=none;html=1;fontFamily=Times New Roman;fontSize=12;exitX=0.392;exitY=0.95;exitDx=0;exitDy=0;exitPerimeter=0;" edge="1" parent="1" source="38">
                    <mxGeometry width="50" height="50" relative="1" as="geometry">
                        <mxPoint x="530" y="850" as="sourcePoint"/>
                        <mxPoint x="680" y="920" as="targetPoint"/>
                        <Array as="points">
                            <mxPoint x="517" y="920"/>
                        </Array>
                    </mxGeometry>
                </mxCell>
                <mxCell id="60" value="" style="endArrow=none;html=1;fontFamily=Times New Roman;fontSize=12;exitX=0.519;exitY=0.85;exitDx=0;exitDy=0;exitPerimeter=0;" edge="1" parent="1" source="39">
                    <mxGeometry width="50" height="50" relative="1" as="geometry">
                        <mxPoint x="800.71" y="850" as="sourcePoint"/>
                        <mxPoint x="680" y="920" as="targetPoint"/>
                        <Array as="points">
                            <mxPoint x="800" y="920"/>
                        </Array>
                    </mxGeometry>
                </mxCell>
                <mxCell id="62" value="" style="endArrow=none;html=1;fontFamily=Times New Roman;fontSize=12;" edge="1" parent="1">
                    <mxGeometry width="50" height="50" relative="1" as="geometry">
                        <mxPoint x="680" y="1000" as="sourcePoint"/>
                        <mxPoint x="680" y="920" as="targetPoint"/>
                    </mxGeometry>
                </mxCell>
                <mxCell id="63" value="" style="endArrow=none;html=1;fontFamily=Times New Roman;fontSize=12;exitX=0.517;exitY=0.817;exitDx=0;exitDy=0;exitPerimeter=0;" edge="1" parent="1" source="29">
                    <mxGeometry width="50" height="50" relative="1" as="geometry">
                        <mxPoint x="938" y="580" as="sourcePoint"/>
                        <mxPoint x="940" y="1000" as="targetPoint"/>
                    </mxGeometry>
                </mxCell>
                <mxCell id="64" value="" style="endArrow=none;html=1;fontFamily=Times New Roman;fontSize=12;" edge="1" parent="1">
                    <mxGeometry width="50" height="50" relative="1" as="geometry">
                        <mxPoint x="1280" y="1000" as="sourcePoint"/>
                        <mxPoint x="1280" y="670" as="targetPoint"/>
                    </mxGeometry>
                </mxCell>
                <mxCell id="65" value="" style="endArrow=none;html=1;fontFamily=Times New Roman;fontSize=12;" edge="1" parent="1">
                    <mxGeometry width="50" height="50" relative="1" as="geometry">
                        <mxPoint x="200" y="1000" as="sourcePoint"/>
                        <mxPoint x="1280" y="1000" as="targetPoint"/>
                    </mxGeometry>
                </mxCell>
                <mxCell id="66" value="" style="endArrow=none;html=1;fontFamily=Times New Roman;fontSize=12;" edge="1" parent="1">
                    <mxGeometry width="50" height="50" relative="1" as="geometry">
                        <mxPoint x="1050.21" y="1070" as="sourcePoint"/>
                        <mxPoint x="1050.21" y="1000" as="targetPoint"/>
                    </mxGeometry>
                </mxCell>
                <mxCell id="68" value="False" style="text;html=1;align=center;verticalAlign=middle;resizable=0;points=[];autosize=1;strokeColor=none;fillColor=none;fontFamily=Times New Roman;" vertex="1" parent="1">
                    <mxGeometry x="40" y="600" width="50" height="30" as="geometry"/>
                </mxCell>
                <mxCell id="69" value="False" style="text;html=1;align=center;verticalAlign=middle;resizable=0;points=[];autosize=1;strokeColor=none;fillColor=none;fontFamily=Times New Roman;" vertex="1" parent="1">
                    <mxGeometry x="530" y="600" width="50" height="30" as="geometry"/>
                </mxCell>
                <mxCell id="70" value="False" style="text;html=1;align=center;verticalAlign=middle;resizable=0;points=[];autosize=1;strokeColor=none;fillColor=none;fontFamily=Times New Roman;" vertex="1" parent="1">
                    <mxGeometry x="300" y="520" width="50" height="30" as="geometry"/>
                </mxCell>
                <mxCell id="71" value="&lt;font style=&quot;font-size: 12px;&quot;&gt;True&lt;/font&gt;" style="edgeLabel;html=1;align=center;verticalAlign=middle;resizable=0;points=[];fontFamily=Times New Roman;rotation=0;labelBackgroundColor=none;" vertex="1" connectable="0" parent="1">
                    <mxGeometry x="220" y="610" as="geometry">
                        <mxPoint x="4" y="6" as="offset"/>
                    </mxGeometry>
                </mxCell>
                <mxCell id="73" value="&lt;font style=&quot;font-size: 12px;&quot;&gt;True&lt;/font&gt;" style="edgeLabel;html=1;align=center;verticalAlign=middle;resizable=0;points=[];fontFamily=Times New Roman;labelBackgroundColor=none;" vertex="1" connectable="0" parent="1">
                    <mxGeometry x="710" y="610" as="geometry"/>
                </mxCell>
                <mxCell id="74" value="&lt;font style=&quot;font-size: 12px;&quot;&gt;True&lt;/font&gt;" style="edgeLabel;html=1;align=center;verticalAlign=middle;resizable=0;points=[];fontFamily=Times New Roman;labelBackgroundColor=none;" vertex="1" connectable="0" parent="1">
                    <mxGeometry x="520" y="540" as="geometry"/>
                </mxCell>
            </root>
        </mxGraphModel>
    </diagram>
</mxfile>